<svg width="16" height="16" viewBox="0 0 16 16" fill="none" xmlns="http://www.w3.org/2000/svg">
<path fill-rule="evenodd" clip-rule="evenodd" d="M5.49925 2.5H12.9992C13.1319 2.5 13.259 2.55268 13.3528 2.64645C13.4466 2.74021 13.4992 2.86739 13.4992 3V10.5C13.4992 10.6326 13.4466 10.7598 13.3528 10.8536C13.259 10.9473 13.1319 11 12.9992 11C12.8666 11 12.7395 10.9473 12.6457 10.8536C12.5519 10.7598 12.4992 10.6326 12.4992 10.5V4.20667L3.35258 13.3533C3.2578 13.4417 3.13243 13.4897 3.0029 13.4874C2.87336 13.4852 2.74977 13.4327 2.65817 13.3411C2.56656 13.2495 2.51408 13.1259 2.5118 12.9963C2.50951 12.8668 2.55759 12.7414 2.64591 12.6467L11.7926 3.5H5.49925C5.36664 3.5 5.23946 3.44732 5.14569 3.35355C5.05192 3.25979 4.99925 3.13261 4.99925 3C4.99925 2.86739 5.05192 2.74021 5.14569 2.64645C5.23946 2.55268 5.36664 2.5 5.49925 2.5Z" fill="white"/>
</svg>
