<svg width="24" height="24" viewBox="0 0 24 24" fill="none" xmlns="http://www.w3.org/2000/svg">
<path fill-rule="evenodd" clip-rule="evenodd" d="M17.6622 3.118C17.8872 3.133 18.1122 3.15 18.3352 3.168C19.8752 3.298 20.9992 4.604 20.9992 6.109V15.751C20.9992 16.5466 20.6832 17.3097 20.1206 17.8723C19.5579 18.4349 18.7949 18.751 17.9992 18.751V16.5C17.9992 10.578 13.4232 5.725 7.61523 5.283C7.93923 4.151 8.91523 3.273 10.1632 3.169C10.3872 3.15 10.6112 3.133 10.8362 3.118C11.0894 2.63029 11.4716 2.22147 11.9412 1.93614C12.4108 1.65082 12.9497 1.49995 13.4992 1.5H14.9992C15.5487 1.49995 16.0877 1.65082 16.5573 1.93614C17.0269 2.22147 17.4091 2.63029 17.6622 3.118ZM11.9992 4.5C11.9992 4.10218 12.1573 3.72064 12.4386 3.43934C12.7199 3.15804 13.1014 3 13.4992 3H14.9992C15.3971 3 15.7786 3.15804 16.0599 3.43934C16.3412 3.72064 16.4992 4.10218 16.4992 4.5H11.9992Z" fill="#332629"/>
<path d="M3 8.625C3 7.589 3.84 6.75 4.875 6.75H5.25C6.24456 6.75 7.19839 7.14509 7.90165 7.84835C8.60491 8.55161 9 9.50544 9 10.5V12.375C9 13.411 9.84 14.25 10.875 14.25H12.75C13.2425 14.25 13.7301 14.347 14.1851 14.5355C14.64 14.7239 15.0534 15.0001 15.4017 15.3483C15.7499 15.6966 16.0261 16.11 16.2145 16.5649C16.403 17.0199 16.5 17.5075 16.5 18V20.625C16.5 21.66 15.66 22.5 14.625 22.5H4.875C4.37772 22.5 3.90081 22.3025 3.54917 21.9508C3.19754 21.5992 3 21.1223 3 20.625V8.625Z" fill="#332629"/>
<path d="M10.4997 10.5C10.5015 9.23853 10.0472 8.01894 9.2207 7.06598C10.894 7.50594 12.4204 8.38245 13.6438 9.60587C14.8672 10.8293 15.7437 12.3557 16.1837 14.029C15.2307 13.2025 14.0112 12.7482 12.7497 12.75H10.8747C10.7752 12.75 10.6799 12.7105 10.6095 12.6401C10.5392 12.5698 10.4997 12.4744 10.4997 12.375V10.5Z" fill="#332629"/>
</svg>
