<svg width="24" height="24" viewBox="0 0 24 24" fill="none" xmlns="http://www.w3.org/2000/svg">
<path fill-rule="evenodd" clip-rule="evenodd" d="M5.47032 5.47C5.61094 5.32955 5.80157 5.25066 6.00032 5.25066C6.19907 5.25066 6.38969 5.32955 6.53032 5.47L12.0003 10.94L17.4703 5.47C17.539 5.39631 17.6218 5.33721 17.7138 5.29622C17.8058 5.25523 17.9051 5.23319 18.0058 5.23141C18.1065 5.22963 18.2065 5.24816 18.2999 5.28588C18.3933 5.3236 18.4781 5.37974 18.5494 5.45096C18.6206 5.52218 18.6767 5.60701 18.7144 5.7004C18.7522 5.79379 18.7707 5.89382 18.7689 5.99452C18.7671 6.09523 18.7451 6.19454 18.7041 6.28654C18.6631 6.37854 18.604 6.46134 18.5303 6.53L13.0603 12L18.5303 17.47C18.604 17.5387 18.6631 17.6215 18.7041 17.7135C18.7451 17.8055 18.7671 17.9048 18.7689 18.0055C18.7707 18.1062 18.7522 18.2062 18.7144 18.2996C18.6767 18.393 18.6206 18.4778 18.5494 18.549C18.4781 18.6203 18.3933 18.6764 18.2999 18.7141C18.2065 18.7518 18.1065 18.7704 18.0058 18.7686C17.9051 18.7668 17.8058 18.7448 17.7138 18.7038C17.6218 18.6628 17.539 18.6037 17.4703 18.53L12.0003 13.06L6.53032 18.53C6.38814 18.6625 6.2001 18.7346 6.00579 18.7312C5.81149 18.7277 5.62611 18.649 5.48869 18.5116C5.35128 18.3742 5.27257 18.1888 5.26914 17.9945C5.26571 17.8002 5.33784 17.6122 5.47032 17.47L10.9403 12L5.47032 6.53C5.32987 6.38938 5.25098 6.19875 5.25098 6C5.25098 5.80125 5.32987 5.61063 5.47032 5.47Z" fill="#2A2A2A"/>
</svg>
