<svg width="24" height="25" viewBox="0 0 24 25" fill="none" xmlns="http://www.w3.org/2000/svg">
<path d="M21.75 6.7998V17.2998C21.75 17.8965 21.5129 18.4688 21.091 18.8908C20.669 19.3128 20.0967 19.5498 19.5 19.5498H4.5C3.90326 19.5498 3.33097 19.3128 2.90901 18.8908C2.48705 18.4688 2.25 17.8965 2.25 17.2998V6.7998M21.75 6.7998C21.75 6.20307 21.5129 5.63077 21.091 5.20881C20.669 4.78686 20.0967 4.5498 19.5 4.5498H4.5C3.90326 4.5498 3.33097 4.78686 2.90901 5.20881C2.48705 5.63077 2.25 6.20307 2.25 6.7998M21.75 6.7998V7.0428C21.75 7.42695 21.6517 7.80471 21.4644 8.1401C21.2771 8.47549 21.0071 8.75734 20.68 8.95881L13.18 13.5738C12.8252 13.7923 12.4167 13.9081 12 13.9081C11.5833 13.9081 11.1748 13.7923 10.82 13.5738L3.32 8.9598C2.99292 8.75834 2.72287 8.47649 2.53557 8.1411C2.34827 7.80571 2.24996 7.42795 2.25 7.0438V6.7998" stroke="white" stroke-width="1.5" stroke-linecap="round" stroke-linejoin="round"/>
</svg>
