<svg width="24" height="25" viewBox="0 0 24 25" fill="none" xmlns="http://www.w3.org/2000/svg">
<path d="M2.25 6.7998C2.25 15.0838 8.966 21.7998 17.25 21.7998H19.5C20.0967 21.7998 20.669 21.5628 21.091 21.1408C21.5129 20.7188 21.75 20.1465 21.75 19.5498V18.1778C21.75 17.6618 21.399 17.2118 20.898 17.0868L16.475 15.9808C16.035 15.8708 15.573 16.0358 15.302 16.3978L14.332 17.6908C14.05 18.0668 13.563 18.2328 13.122 18.0708C11.4849 17.4689 9.99815 16.5184 8.76478 15.285C7.53141 14.0517 6.58087 12.5649 5.979 10.9278C5.817 10.4868 5.983 9.9998 6.359 9.7178L7.652 8.7478C8.015 8.4768 8.179 8.0138 8.069 7.5748L6.963 3.1518C6.90214 2.9085 6.76172 2.69251 6.56405 2.53814C6.36638 2.38378 6.1228 2.29989 5.872 2.2998H4.5C3.90326 2.2998 3.33097 2.53686 2.90901 2.95881C2.48705 3.38077 2.25 3.95307 2.25 4.5498V6.7998Z" stroke="white" stroke-width="1.5" stroke-linecap="round" stroke-linejoin="round"/>
</svg>
