<svg width="32" height="32" viewBox="0 0 32 32" fill="none" xmlns="http://www.w3.org/2000/svg">
<path d="M22.5084 5.79464C18.8487 7.259 14.9421 8.00764 11.0004 7.99998H10.0004C8.24401 7.99744 6.55088 8.65525 5.25692 9.84287C3.96297 11.0305 3.16275 12.6612 3.01505 14.4113C2.86734 16.1614 3.38294 17.9031 4.45955 19.2908C5.53616 20.6785 7.09509 21.6108 8.82702 21.9026C9.26838 23.709 9.8837 25.4683 10.6644 27.156C11.283 28.4946 12.8964 28.916 14.107 28.2173L14.983 27.712C16.1564 27.0346 16.5364 25.5893 16.0124 24.4213C15.6974 23.7216 15.4179 23.0065 15.175 22.2786C17.7324 22.6226 20.1884 23.2786 22.5084 24.2066C23.4997 21.2385 24.0035 18.1293 24.0004 15C24.0004 11.7826 23.4764 8.68664 22.5084 5.79464ZM24.347 4.98664C25.4452 8.21075 26.0038 11.594 26.0004 15C26.0038 18.406 25.4452 21.7892 24.347 25.0133C24.2737 25.228 24.199 25.4426 24.1204 25.656C24.0291 25.9051 24.0406 26.1803 24.1522 26.4209C24.2639 26.6616 24.4666 26.8481 24.7157 26.9393C24.9648 27.0305 25.24 27.0191 25.4807 26.9074C25.7213 26.7958 25.9078 26.5931 25.999 26.344C27.0099 23.5838 27.6445 20.7002 27.8857 17.7706C28.602 17.0262 29.0016 16.033 29.0004 15C29.0004 13.9253 28.575 12.9466 27.8857 12.2293C27.643 9.30002 27.0084 6.41653 25.999 3.65598C25.9538 3.53262 25.8848 3.41937 25.7959 3.32269C25.7069 3.22602 25.5998 3.1478 25.4807 3.09252C25.24 2.98088 24.9648 2.96941 24.7157 3.06064C24.4666 3.15188 24.2639 3.33834 24.1522 3.57901C24.0406 3.81968 24.0291 4.09485 24.1204 4.34398C24.199 4.55731 24.275 4.77064 24.347 4.98664Z" fill="#332629"/>
</svg>
