<svg width="32" height="32" viewBox="0 0 32 32" fill="none" xmlns="http://www.w3.org/2000/svg">
<path d="M8.33301 8.5C8.33301 7.04131 8.91247 5.64236 9.94392 4.61091C10.9754 3.57946 12.3743 3 13.833 3C15.2917 3 16.6906 3.57946 17.7221 4.61091C18.7535 5.64236 19.333 7.04131 19.333 8.5C19.333 9.95869 18.7535 11.3576 17.7221 12.3891C16.6906 13.4205 15.2917 14 13.833 14C12.3743 14 10.9754 13.4205 9.94392 12.3891C8.91247 11.3576 8.33301 9.95869 8.33301 8.5ZM4.33301 25.5C4.33301 22.9804 5.3339 20.5641 7.11549 18.7825C8.89709 17.0009 11.3135 16 13.833 16C16.3526 16 18.7689 17.0009 20.5505 18.7825C22.3321 20.5641 23.333 22.9804 23.333 25.5V25.504L23.3317 25.6627C23.3288 25.8322 23.2829 25.9983 23.1983 26.1452C23.1136 26.2922 22.993 26.4152 22.8477 26.5027C20.1266 28.1413 17.0094 29.0049 13.833 29C10.537 29 7.45167 28.088 4.81967 26.5027C4.67414 26.4153 4.55323 26.2924 4.46832 26.1455C4.38342 25.9985 4.33731 25.8324 4.33434 25.6627L4.33301 25.5ZM26.333 10C26.333 9.73478 26.2277 9.48043 26.0401 9.29289C25.8526 9.10536 25.5982 9 25.333 9C25.0678 9 24.8134 9.10536 24.6259 9.29289C24.4384 9.48043 24.333 9.73478 24.333 10V13H21.333C21.0678 13 20.8134 13.1054 20.6259 13.2929C20.4384 13.4804 20.333 13.7348 20.333 14C20.333 14.2652 20.4384 14.5196 20.6259 14.7071C20.8134 14.8946 21.0678 15 21.333 15H24.333V18C24.333 18.2652 24.4384 18.5196 24.6259 18.7071C24.8134 18.8946 25.0678 19 25.333 19C25.5982 19 25.8526 18.8946 26.0401 18.7071C26.2277 18.5196 26.333 18.2652 26.333 18V15H29.333C29.5982 15 29.8526 14.8946 30.0401 14.7071C30.2277 14.5196 30.333 14.2652 30.333 14C30.333 13.7348 30.2277 13.4804 30.0401 13.2929C29.8526 13.1054 29.5982 13 29.333 13H26.333V10Z" fill="#332629"/>
</svg>
