<svg width="32" height="32" viewBox="0 0 32 32" fill="none" xmlns="http://www.w3.org/2000/svg">
<path fill-rule="evenodd" clip-rule="evenodd" d="M9.9998 8C9.9998 6.4087 10.6319 4.88258 11.7572 3.75736C12.8824 2.63214 14.4085 2 15.9998 2C17.5911 2 19.1172 2.63214 20.2424 3.75736C21.3677 4.88258 21.9998 6.4087 21.9998 8C21.9998 9.5913 21.3677 11.1174 20.2424 12.2426C19.1172 13.3679 17.5911 14 15.9998 14C14.4085 14 12.8824 13.3679 11.7572 12.2426C10.6319 11.1174 9.9998 9.5913 9.9998 8ZM5.00114 26.8067C5.0461 23.9193 6.22466 21.1654 8.28242 19.1394C10.3402 17.1135 13.1121 15.9779 15.9998 15.9779C18.8875 15.9779 21.6594 17.1135 23.7172 19.1394C25.7749 21.1654 26.9535 23.9193 26.9985 26.8067C27.0019 27.001 26.9487 27.1922 26.8452 27.3568C26.7417 27.5214 26.5925 27.6522 26.4158 27.7333C23.148 29.2316 19.5947 30.0049 15.9998 30C12.2851 30 8.7558 29.1893 5.5838 27.7333C5.40712 27.6522 5.2579 27.5214 5.15442 27.3568C5.05093 27.1922 4.99767 27.001 5.00114 26.8067Z" fill="#332629"/>
</svg>
